<svg width="20" height="20" viewBox="0 0 15 15" fill="none" xmlns="http://www.w3.org/2000/svg">
<path fill-rule="evenodd" clip-rule="evenodd" d="M2.33145 0.104894C2.02078 -0.00823533 1.68425 -0.0303921 1.36142 0.0410281C1.03859 0.112448 0.74286 0.274477 0.508999 0.508072C0.275138 0.741667 0.112859 1.03712 0.0412359 1.35971C-0.0303867 1.6823 -0.00837724 2.01861 0.104677 2.32913L3.9364 13.806C4.02962 14.088 4.1937 14.3414 4.41295 14.542C4.6322 14.7425 4.89927 14.8835 5.18862 14.9513C5.47728 15.0216 5.77926 15.0157 6.06494 14.9342C6.35062 14.8526 6.6102 14.6983 6.81823 14.4864L8.87453 12.441L11.0338 13.5574C11.1165 13.6003 11.2091 13.6209 11.3022 13.6171C11.3954 13.6134 11.4859 13.5854 11.565 13.5359C11.644 13.4865 11.7088 13.4173 11.7529 13.3352C11.7969 13.2531 11.8188 13.161 11.8164 13.0678L11.7274 9.65646L4.1744 4.17409C4.10316 4.12238 4.04281 4.05716 3.99679 3.98214C3.95078 3.90713 3.92 3.82379 3.90621 3.73689C3.89242 3.64998 3.8959 3.56121 3.91644 3.47565C3.93698 3.39009 3.97418 3.30941 4.02592 3.23822C4.07766 3.16702 4.14292 3.10671 4.21799 3.06072C4.29305 3.01474 4.37645 2.98398 4.46341 2.9702C4.55037 2.95642 4.63919 2.95989 4.72481 2.98042C4.81043 3.00094 4.89116 3.03812 4.96241 3.08983L12.643 8.66542L14.4977 6.81189C14.6976 6.61207 14.845 6.36598 14.9267 6.0955C15.0085 5.82502 15.0221 5.53855 14.9663 5.26156C14.9102 4.95874 14.7744 4.6763 14.573 4.4432C14.3716 4.21011 14.1118 4.03476 13.8202 3.93517H13.817L2.33252 0.103823L2.33145 0.104894Z" fill="black"/>
</svg>
