<svg width="427" height="123" viewBox="0 0 427 123" fill="none" xmlns="http://www.w3.org/2000/svg">
<g filter="url(#filter0_dd_133_2)">
<path d="M52.3 69H50.45V34.2H52.45L64.6 55.65L76.7 34.2H78.55V69H76.7V37.9L65.45 57.75H63.7L52.3 37.65V69ZM112.812 34.2V36.05H102.412V67.15H112.812V69H90.2617V67.15H100.612V36.05H90.2617V34.2H112.812ZM124.923 69V34.2H126.873L151.173 57.8V34.2H153.023V69H151.173V60.4L126.773 36.6V69H124.923ZM175.185 34.2C177.718 34.2 180.052 34.8333 182.185 36.1C184.352 37.3667 186.068 39.0833 187.335 41.25C188.602 43.3833 189.235 45.7167 189.235 48.25V54.95C189.235 57.4833 188.602 59.8333 187.335 62C186.068 64.1333 184.352 65.8333 182.185 67.1C180.052 68.3667 177.718 69 175.185 69H162.335V34.2H175.185ZM187.385 48.25C187.385 46.05 186.835 44.0167 185.735 42.15C184.635 40.2833 183.135 38.8 181.235 37.7C179.368 36.6 177.335 36.05 175.135 36.05H164.185V67.15H175.135C177.335 67.15 179.368 66.6 181.235 65.5C183.135 64.4 184.635 62.9167 185.735 61.05C186.835 59.1833 187.385 57.15 187.385 54.95V48.25ZM213.297 52.35C210.464 51.7833 208.147 51.1667 206.347 50.5C204.58 49.8 203.18 48.8667 202.147 47.7C201.147 46.5 200.647 44.9667 200.647 43.1C200.647 41.1667 201.147 39.4667 202.147 38C203.18 36.5333 204.614 35.4 206.447 34.6C208.314 33.8 210.464 33.4 212.897 33.4C215.23 33.4 217.364 33.9 219.297 34.9C221.264 35.8667 222.814 37.2333 223.947 39C225.08 40.7667 225.647 42.7833 225.647 45.05H223.797C223.797 43.0833 223.314 41.35 222.347 39.85C221.38 38.35 220.064 37.2 218.397 36.4C216.73 35.5667 214.88 35.15 212.847 35.15C211.047 35.15 209.364 35.4333 207.797 36C206.23 36.5667 204.947 37.4333 203.947 38.6C202.98 39.7667 202.497 41.2333 202.497 43C202.497 44.6 202.964 45.8833 203.897 46.85C204.83 47.7833 206.047 48.5 207.547 49C209.047 49.5 211.147 50.0333 213.847 50.6C216.58 51.1667 218.697 51.7167 220.197 52.25C221.73 52.75 223.014 53.6 224.047 54.8C225.114 56 225.647 57.6833 225.647 59.85C225.647 62.0167 225.064 63.85 223.897 65.35C222.764 66.8167 221.247 67.9167 219.347 68.65C217.447 69.3833 215.38 69.75 213.147 69.75C210.38 69.75 207.947 69.2333 205.847 68.2C203.747 67.1667 202.13 65.7167 200.997 63.85C199.897 61.95 199.347 59.7833 199.347 57.35H201.197C201.197 59.4833 201.664 61.35 202.597 62.95C203.564 64.55 204.947 65.8 206.747 66.7C208.547 67.5667 210.68 68 213.147 68C216.214 68 218.747 67.2667 220.747 65.8C222.78 64.3333 223.797 62.3333 223.797 59.8C223.797 58.0667 223.364 56.7333 222.497 55.8C221.63 54.8667 220.53 54.2 219.197 53.8C217.897 53.3667 215.93 52.8833 213.297 52.35ZM239.859 69H238.009V34.2H252.009C254.342 34.2 256.492 34.7 258.459 35.7C260.459 36.7 262.042 38.1167 263.209 39.95C264.375 41.7833 264.959 43.9 264.959 46.3C264.959 48.6 264.359 50.7167 263.159 52.65C261.992 54.5833 260.392 56.0667 258.359 57.1C256.592 58 254.475 58.45 252.009 58.45H239.859V69ZM239.859 56.6H252.009C254.142 56.6 255.892 56.2667 257.259 55.6C259.025 54.7667 260.442 53.5167 261.509 51.85C262.575 50.1833 263.109 48.3333 263.109 46.3C263.109 44.3 262.575 42.4667 261.509 40.8C260.442 39.1333 259.009 37.8833 257.209 37.05C255.842 36.3833 254.109 36.05 252.009 36.05H239.859V56.6ZM302.97 69H270.17L286.57 33.45L302.97 69ZM273.07 67.15H300.07L286.57 37.85L273.07 67.15ZM311.632 55.7C311.632 57.9 312.182 59.9333 313.282 61.8C314.415 63.6667 315.915 65.15 317.782 66.25C319.682 67.35 321.732 67.9 323.932 67.9C326.199 67.9 328.249 67.45 330.082 66.55C331.915 65.65 333.349 64.4 334.382 62.8C335.449 61.2 335.999 59.4 336.032 57.4H337.832C337.832 59.7 337.215 61.8 335.982 63.7C334.782 65.5667 333.115 67.05 330.982 68.15C328.882 69.2167 326.532 69.75 323.932 69.75C321.399 69.75 319.049 69.1167 316.882 67.85C314.715 66.5833 312.999 64.8833 311.732 62.75C310.465 60.5833 309.832 58.2333 309.832 55.7V47.5C309.832 44.9667 310.449 42.6333 311.682 40.5C312.949 38.3333 314.649 36.6167 316.782 35.35C318.949 34.0833 321.299 33.45 323.832 33.45C326.399 33.45 328.732 34 330.832 35.1C332.965 36.1667 334.649 37.65 335.882 39.55C337.115 41.4167 337.732 43.5 337.732 45.8H335.932C335.899 43.8 335.349 42 334.282 40.4C333.215 38.8 331.765 37.55 329.932 36.65C328.132 35.75 326.099 35.3 323.832 35.3C321.632 35.3 319.599 35.85 317.732 36.95C315.865 38.05 314.382 39.5333 313.282 41.4C312.182 43.2667 311.632 45.3 311.632 47.5V55.7ZM348.594 34.2H373.094V36.05H350.444V50.15H370.144V52H350.444V67.15H373.094V69H348.594V34.2Z" fill="white"/>
</g>
<rect x="10.8039" y="49.1001" width="25.4929" height="8.29286" transform="rotate(-40.5 10.8039 49.1001)" fill="white"/>
<rect x="12.5929" y="56.4141" width="1.84286" height="16.5857" fill="white"/>
<rect x="10.75" y="49.3501" width="5.52857" height="9.21429" fill="white"/>
<rect x="10.7716" y="56.7212" width="1.84286" height="16.5857" transform="rotate(40.5 10.7716 56.7212)" fill="white"/>
<rect width="1.84286" height="16.5857" transform="matrix(-0.760406 0.649448 0.649448 0.760406 15.8371 56.4141)" fill="white"/>
<rect x="31.0214" y="31.7993" width="2.77032" height="8.29286" transform="rotate(-40.5 31.0214 31.7993)" fill="white"/>
<defs>
<filter id="filter0_dd_133_2" x="3.45" y="-13.6001" width="422.644" height="136.35" filterUnits="userSpaceOnUse" color-interpolation-filters="sRGB">
<feFlood flood-opacity="0" result="BackgroundImageFix"/>
<feColorMatrix in="SourceAlpha" type="matrix" values="0 0 0 0 0 0 0 0 0 0 0 0 0 0 0 0 0 0 127 0" result="hardAlpha"/>
<feOffset dx="3" dy="3"/>
<feGaussianBlur stdDeviation="25"/>
<feComposite in2="hardAlpha" operator="out"/>
<feColorMatrix type="matrix" values="0 0 0 0 1 0 0 0 0 1 0 0 0 0 1 0 0 0 0.5 0"/>
<feBlend mode="normal" in2="BackgroundImageFix" result="effect1_dropShadow_133_2"/>
<feColorMatrix in="SourceAlpha" type="matrix" values="0 0 0 0 0 0 0 0 0 0 0 0 0 0 0 0 0 0 127 0" result="hardAlpha"/>
<feOffset dx="-1" dy="-1"/>
<feGaussianBlur stdDeviation="15"/>
<feComposite in2="hardAlpha" operator="out"/>
<feColorMatrix type="matrix" values="0 0 0 0 0.705833 0 0 0 0 1 0 0 0 0 1 0 0 0 1 0"/>
<feBlend mode="normal" in2="effect1_dropShadow_133_2" result="effect2_dropShadow_133_2"/>
<feBlend mode="normal" in="SourceGraphic" in2="effect2_dropShadow_133_2" result="shape"/>
</filter>
</defs>
</svg>
