<svg width="17" height="17" viewBox="0 0 15 15" fill="none" xmlns="http://www.w3.org/2000/svg">
<path fill-rule="evenodd" clip-rule="evenodd" d="M2.67816 0C2.25191 0 1.84311 0.169327 1.5417 0.47073C1.2403 0.772133 1.07097 1.18092 1.07097 1.60717V11.1634L0.027361 14.2953C-0.00289366 14.3863 -0.00816807 14.4837 0.0120883 14.5774C0.0323446 14.6712 0.0773891 14.7577 0.14252 14.8281C0.207651 14.8985 0.290481 14.9501 0.382364 14.9776C0.474247 15.005 0.571814 15.0073 0.664882 14.9842L4.88645 13.9288H13.3928C13.8191 13.9288 14.2279 13.7595 14.5293 13.4581C14.8307 13.1567 15 12.7479 15 12.3217V1.60717C15 1.18092 14.8307 0.772133 14.5293 0.47073C14.2279 0.169327 13.8191 0 13.3928 0L2.67816 0ZM4.15143 5.19224C4.15143 4.82152 4.45144 4.52258 4.82109 4.52258H11.2499C11.4275 4.52258 11.5978 4.59313 11.7234 4.71872C11.849 4.8443 11.9195 5.01463 11.9195 5.19224C11.9195 5.36984 11.849 5.54017 11.7234 5.66575C11.5978 5.79134 11.4275 5.86189 11.2499 5.86189H4.82109C4.64348 5.86189 4.47315 5.79134 4.34757 5.66575C4.22198 5.54017 4.15143 5.36984 4.15143 5.19224ZM4.82109 8.06693C4.64348 8.06693 4.47315 8.13748 4.34757 8.26307C4.22198 8.38865 4.15143 8.55898 4.15143 8.73659C4.15143 8.91419 4.22198 9.08452 4.34757 9.2101C4.47315 9.33569 4.64348 9.40624 4.82109 9.40624H9.10695C9.28455 9.40624 9.45489 9.33569 9.58047 9.2101C9.70606 9.08452 9.77661 8.91419 9.77661 8.73659C9.77661 8.55898 9.70606 8.38865 9.58047 8.26307C9.45489 8.13748 9.28455 8.06693 9.10695 8.06693H4.82109Z" fill="black"/>
</svg>
